Coordinates
version=1
nRows=29
nColumns=24
inDegrees=yes

Units are S.I. units (second, meters, Newtons, ...)
Angles are in degrees.

endheader
time	pelvis_tilt	pelvis_list	pelvis_rotation	pelvis_tx	pelvis_ty	pelvis_tz	hip_flexion_r	hip_adduction_r	hip_rotation_r	knee_angle_r	ankle_angle_r	subtalar_angle_r	mtp_angle_r	hip_flexion_l	hip_adduction_l	hip_rotation_l	knee_angle_l	ankle_angle_l	subtalar_angle_l	mtp_angle_l	lumbar_extension	lumbar_bending	lumbar_rotation
      4.67000000	     -3.63095044	      9.43486495	     -6.66051526	      0.35164989	      1.01736473	     -0.27397449	     12.23940427	    -13.22797425	     -3.21316277	    -63.86320867	     -6.29372599	     -1.46440229	      0.00000000	     16.74012694	     12.04716105	     -5.65624148	    -13.59369703	      7.76292515	     -9.10796814	      0.00000000	     -5.86261366	    -11.91134095	      2.59551510
      4.67500000	     -3.57430900	      9.40766610	     -6.61516545	      0.35792290	      1.01828983	     -0.27438236	     12.94967682	    -13.13128628	     -3.15003682	    -64.49014781	     -5.17924294	     -1.46132141	      0.00000000	     16.06905060	     12.14264210	     -5.45144113	    -13.18157932	      7.92579928	     -9.08964006	      0.00000000	     -5.92197649	    -11.83768893	      2.38621149
      4.68000000	     -3.50652110	      9.39591753	     -6.55133460	      0.36421221	      1.01922502	     -0.27489280	     13.63671865	    -13.07057163	     -3.13567408	    -65.04342905	     -4.02106638	     -1.41244325	      0.00000000	     15.34927524	     12.28016511	     -5.09308086	    -12.69192602	      7.93676976	     -9.30441097	      0.00000000	     -5.98934424	    -11.77061287	      2.16657441
      4.68500000	     -3.45347020	      9.33339558	     -6.44873723	      0.37047781	      1.02016828	     -0.27541357	     14.30461722	    -12.95165469	     -3.16479560	    -65.50954870	     -2.84766157	     -1.30634271	      0.00000000	     14.63709893	     12.36379298	     -4.71373550	    -12.21216609	      7.96942246	     -9.46628018	      0.00000000	     -6.05320693	    -11.64289030	      1.90855479
      4.69000000	     -3.42246142	      9.22382314	     -6.32921776	      0.37672330	      1.02109210	     -0.27594013	     14.96947614	    -12.77948895	     -3.22391228	    -65.89262087	     -1.67779216	     -1.15560967	      0.00000000	     13.94964268	     12.39142422	     -4.38313550	    -11.74824480	      8.03536426	     -9.57974454	      0.00000000	     -6.09523351	    -11.45355815	      1.64559078
      4.69500000	     -3.36790223	      9.14172905	     -6.17823157	      0.38297167	      1.02203994	     -0.27652612	     15.59361920	    -12.65535628	     -3.33771734	    -66.20196701	     -0.55153003	     -1.02501012	      0.00000000	     13.19957302	     12.46418896	     -3.85923976	    -11.21321837	      7.95773286	     -9.85838671	      0.00000000	     -6.17040695	    -11.30023716	      1.35637462
      4.70000000	     -3.36271973	      8.97475674	     -6.04920453	      0.38912249	      1.02294298	     -0.27698357	     16.25350856	    -12.40422289	     -3.42263539	    -66.42937572	      0.51722144	     -0.87346464	      0.00000000	     12.53188345	     12.41073940	     -3.52380583	    -10.74687267	      8.02517547	     -9.90466274	      0.00000000	     -6.20153106	    -11.05212222	      1.11800663
      4.70500000	     -3.31055087	      8.86573345	     -5.82292119	      0.39541301	      1.02387672	     -0.27771480	     16.81751508	    -12.28772221	     -3.65825156	    -66.57770343	      1.55732010	     -0.71823588	      0.00000000	     11.75535220	     12.46620118	     -2.92824350	    -10.17692039	      7.86856182	    -10.26721387	      0.00000000	     -6.27516094	    -10.85020695	      0.75385209
      4.71000000	     -3.31728271	      8.67291991	     -5.68146558	      0.40152580	      1.02471944	     -0.27819632	     17.45997874	    -12.01358492	     -3.78354285	    -66.66374469	      2.50050639	     -0.57158286	      0.00000000	     11.08786378	     12.37682846	     -2.57441464	     -9.68981836	      7.93020636	    -10.33074365	      0.00000000	     -6.29822574	    -10.56704592	      0.51362488
      4.71500000	     -3.26639062	      8.52716291	     -5.41545098	      0.40778829	      1.02561999	     -0.27898480	     17.98071554	    -11.87592202	     -4.09728172	    -66.66370993	      3.39274377	     -0.45270470	      0.00000000	     10.28886971	     12.38588853	     -1.89487191	     -9.09163066	      7.74462479	    -10.72703098	      0.00000000	     -6.38137346	    -10.31748039	      0.12010653
      4.72000000	     -3.25863293	      8.32956608	     -5.19709959	      0.41394622	      1.02646449	     -0.27961644	     18.54413678	    -11.63945707	     -4.34346641	    -66.59200576	      4.23340319	     -0.30702674	      0.00000000	      9.56801306	     12.30189011	     -1.41401697	     -8.54428363	      7.66029121	    -10.92370330	      0.00000000	     -6.42429622	    -10.01768641	     -0.19658292
      4.72500000	     -3.23228140	      8.11917532	     -4.99247075	      0.42011743	      1.02728047	     -0.28024941	     19.07644390	    -11.39323029	     -4.60440536	    -66.45425000	      4.99868705	     -0.21119895	      0.00000000	      8.79939630	     12.20111094	     -0.82683919	     -7.94761000	      7.53949564	    -11.23361181	      0.00000000	     -6.48454126	     -9.70287991	     -0.49960182
      4.73000000	     -3.25157009	      7.90749379	     -4.73836202	      0.42623263	      1.02801747	     -0.28091471	     19.62989023	    -11.15305227	     -4.90634007	    -66.25016812	      5.77756715	     -0.06099430	      0.00000000	      8.10993384	     12.08625805	     -0.34574653	     -7.40628951	      7.46048172	    -11.39758674	      0.00000000	     -6.50513543	     -9.38382987	     -0.84047739
      4.73500000	     -3.25223879	      7.67373403	     -4.49480061	      0.43238160	      1.02873328	     -0.28160238	     20.14594520	    -10.89213651	     -5.21429461	    -65.97444200	      6.50316140	      0.07162890	      0.00000000	      7.37161519	     11.94696275	      0.22187087	     -6.81245078	      7.33994354	    -11.68724969	      0.00000000	     -6.53718805	     -9.03445309	     -1.17189799
      4.74000000	     -3.25192633	      7.43651315	     -4.25949631	      0.43849838	      1.02940629	     -0.28223771	     20.64676400	    -10.62048767	     -5.52042280	    -65.62932990	      7.23100783	      0.20172433	      0.00000000	      6.63536540	     11.78994217	      0.79084229	     -6.21826038	      7.20420472	    -11.98366803	      0.00000000	     -6.57846028	     -8.68806353	     -1.49460223
      4.74500000	     -3.24287654	      7.19742740	     -4.03031859	      0.44458969	      1.03002464	     -0.28284953	     21.12736562	    -10.33993989	     -5.81942156	    -65.22263819	      7.95656483	      0.32246391	      0.00000000	      5.88363523	     11.62051409	      1.40446902	     -5.60783137	      7.06141784	    -12.31266732	      0.00000000	     -6.62841362	     -8.34557295	     -1.77784912
      4.75000000	     -3.25281249	      6.94343022	     -3.78905758	      0.45065047	      1.03059486	     -0.28345278	     21.60494532	    -10.03925733	     -6.12269451	    -64.74129491	      8.69077393	      0.47704964	      0.00000000	      5.16552586	     11.42501025	      1.94800374	     -5.01369719	      6.91392768	    -12.60202069	      0.00000000	     -6.66212122	     -7.98360813	     -2.08942226
      4.75500000	     -3.26361689	      6.68428774	     -3.54730544	      0.45671270	      1.03110247	     -0.28404603	     22.06716605	     -9.72912121	     -6.42055207	    -64.19599804	      9.42202581	      0.64449779	      0.00000000	      4.44652767	     11.21523978	      2.48620508	     -4.41094833	      6.77088397	    -12.90371787	      0.00000000	     -6.69217024	     -7.61501483	     -2.40728563
      4.76000000	     -3.27220411	      6.42400395	     -3.31345161	      0.46276191	      1.03154841	     -0.28462047	     22.51277581	     -9.41069984	     -6.70481303	    -63.58523519	     10.16022607	      0.81979576	      0.00000000	      3.72535968	     10.99436214	      3.01752709	     -3.80071546	      6.62828240	    -13.21152956	      0.00000000	     -6.72312831	     -7.24713557	     -2.70856090
      4.76500000	     -3.28355814	      6.16516844	     -3.08203587	      0.46876846	      1.03193330	     -0.28515181	     22.94633759	     -9.08539454	     -6.97972468	    -62.90752293	     10.90897213	      0.99906982	      0.00000000	      3.01627322	     10.76297019	      3.52751407	     -3.19736666	      6.48551914	    -13.50390388	      0.00000000	     -6.75640937	     -6.88707224	     -2.99685519
      4.77000000	     -3.30189818	      5.90858865	     -2.84576585	      0.47476035	      1.03224780	     -0.28566290	     23.36984558	     -8.75871355	     -7.24872868	    -62.16537292	     11.65153587	      1.18468109	      0.00000000	      2.32001449	     10.52347171	      4.01159397	     -2.59721512	      6.35765203	    -13.76602071	      0.00000000	     -6.78138727	     -6.53020497	     -3.29788011
      4.77500000	     -3.32282616	      5.65692651	     -2.61707828	      0.48073743	      1.03248354	     -0.28615837	     23.78347483	     -8.43220000	     -7.50208012	    -61.36419486	     12.38385657	      1.37466026	      0.00000000	      1.63021194	     10.28071499	      4.46930048	     -1.99535083	      6.24865001	    -14.01361221	      0.00000000	     -6.79922919	     -6.17738261	     -3.59473859
      4.78000000	     -3.35037886	      5.40952636	     -2.38385010	      0.48666548	      1.03266785	     -0.28661338	     24.18376557	     -8.10429546	     -7.74720595	    -60.49123680	     13.10903777	      1.55934648	      0.00000000	      0.96269270	     10.03168318	      4.89882530	     -1.41127709	      6.12682745	    -14.23406017	      0.00000000	     -6.82120250	     -5.84074173	     -3.87613779
      4.78500000	     -3.38439162	      5.17020852	     -2.15648660	      0.49258240	      1.03276747	     -0.28704309	     24.57678084	     -7.78159557	     -7.97985874	    -59.56095200	     13.80701143	      1.73537367	      0.00000000	      0.30912307	      9.78384161	      5.29595807	     -0.83220742	      6.02823920	    -14.43412977	      0.00000000	     -6.83174395	     -5.51325412	     -4.15925989
      4.79000000	     -3.42620295	      4.94011416	     -1.93249129	      0.49847933	      1.03279025	     -0.28743797	     24.96260545	     -7.46518244	     -8.20031286	    -58.57138054	     14.46832751	      1.89777412	      0.00000000	     -0.32486897	      9.53789884	      5.66337519	     -0.26564499	      5.94447743	    -14.61021113	      0.00000000	     -6.83365423	     -5.20021743	     -4.43739318
      4.79500000	     -3.47382217	      4.71987424	     -1.71231775	      0.50435852	      1.03273872	     -0.28780243	     25.33883872	     -7.15701011	     -8.40948165	    -57.52427778	     15.08555283	      2.04069134	      0.00000000	     -0.93961197	      9.29643897	      6.00334613	      0.28493104	      5.87206712	    -14.77115381	      0.00000000	     -6.82881736	     -4.90171636	     -4.71065752
      4.80000000	     -3.53457558	      4.51235519	     -1.50159458	      0.51022240	      1.03259942	     -0.28812284	     25.71548115	     -6.85686310	     -8.59859550	    -56.42398179	     15.65138614	      2.16453677	      0.00000000	     -1.52583781	      9.06220618	      6.31164142	      0.81584721	      5.82906347	    -14.90085545	      0.00000000	     -6.80830661	     -4.62339247	     -4.97235974
      4.80500000	     -3.59488093	      4.31409583	     -1.29127948	      0.51607304	      1.03240149	     -0.28841769	     26.07349764	     -6.56899675	     -8.78496843	    -55.26854572	     16.16091911	      2.26655984	      0.00000000	     -2.09752949	      8.83434992	      6.60252971	      1.32662846	      5.78631127	    -15.03938148	      0.00000000	     -6.78791616	     -4.35917078	     -5.23442358
      4.81000000	     -3.67045002	      4.13089143	     -1.09519372	      0.52193510	      1.03211011	     -0.28866732	     26.43344436	     -6.28952124	     -8.94289109	    -54.06524241	     16.62187528	      2.35491309	      0.00000000	     -2.63774916	      8.61926753	      6.86021483	      1.81222638	      5.77317516	    -15.15309737	      0.00000000	     -6.74831337	     -4.11775131	     -5.47901495
